<svg width="470" height="294" viewBox="0 0 470 294" fill="none" xmlns="http://www.w3.org/2000/svg">
<path d="M470 0H0V294H470V0Z" fill="#121212"/>
<g clip-path="url(#clip0_6471_122645)">
<path d="M146.375 -10.4297V58.5203H139.375L109.975 14.7703C106.125 8.82031 101.575 1.82031 98.6 -3.42969C98.775 6.19531 98.775 15.1203 98.775 21.7703V58.6953H93V-10.4297H100L129.4 33.3203C133.25 39.2703 137.8 46.2703 140.775 51.5203C140.6 42.0703 140.6 33.1453 140.6 26.4953V-10.4297H146.375Z" fill="white"/>
<path d="M173.498 -5.17969V19.8453H210.423V25.0953H173.498V53.2703H214.273V58.5203H167.723V-10.4297H214.273V-5.17969H173.498V-5.17969Z" fill="white"/>
<path d="M314.9 -10.4344L294.075 58.5156H287.6L274.475 15.1156C272.9 9.16562 271.15 2.86562 269.4 -3.25938C267.825 2.86562 266.075 9.16562 264.325 15.1156L251.375 58.6906H244.9L224.25 -10.4344H230.2L242.8 31.2156C244.725 37.8656 246.825 45.0406 248.4 51.6906C250.325 44.8656 252.075 37.6906 254 30.8656L266.25 -10.6094H272.725L284.975 30.8656C286.9 37.6906 288.825 44.6906 290.575 51.6906C292.15 44.8656 294.25 37.8656 296.175 31.2156L308.775 -10.4344H314.9V-10.4344Z" fill="white"/>
<path d="M323.125 37.525H329.075C329.6 49.95 337.825 55.025 351.125 55.025C363.9 55.025 370.55 49.425 370.55 40.5C370.55 33.15 366.175 29.125 352.875 26.325L346.05 24.925C333.275 22.3 325.575 17.225 325.575 5.675C325.575 -4.825 334.15 -12 348.85 -12C367.575 -12 374.4 -2.55 374.575 8.3H368.625C368.275 -0.975 362.85 -6.75 348.85 -6.75C337.3 -6.75 331.525 -1.675 331.525 5.675C331.525 13.2 335.375 17.05 348.5 19.85L355.325 21.25C371.25 24.575 376.5 30.7 376.5 40.5C376.5 52.05 367.75 60.1 351.125 60.1C333.975 60.275 323.65 53.275 323.125 37.525Z" fill="white"/>
<path d="M146.375 72.5156V141.466H139.375L109.975 97.7156C106.125 91.7656 101.575 84.7656 98.6 79.5156C98.775 88.9656 98.775 98.0656 98.775 104.541V141.466H93V72.5156H100L129.4 116.266C133.25 122.216 137.8 129.216 140.775 134.466C140.6 125.016 140.6 116.091 140.6 109.441V72.5156H146.375Z" fill="white"/>
<path d="M173.498 77.7656V102.791H210.423V108.041H173.498V136.216H214.273V141.466H167.723V72.5156H214.273V77.7656H173.498Z" fill="white"/>
<path d="M314.9 72.5344L294.075 141.484H287.6L274.65 97.9094C273.075 91.9594 271.325 85.6594 269.575 79.5344C268 85.6594 266.25 91.9594 264.5 97.9094L251.55 141.484H245.075L224.25 72.5344H230.2L242.8 114.184C244.725 120.834 246.825 128.009 248.4 134.659C250.325 127.834 252.075 120.659 254 113.834L266.25 72.3594H272.725L284.975 113.834C286.9 120.659 288.825 127.659 290.575 134.659C292.15 127.834 294.25 120.834 296.175 114.184L308.775 72.5344H314.9Z" fill="white"/>
<path d="M323.125 120.47H329.075C329.6 132.895 337.825 137.97 351.125 137.97C363.9 137.97 370.55 132.37 370.55 123.445C370.55 116.095 366.175 112.07 352.875 109.27L346.05 107.87C333.275 105.245 325.575 100.17 325.575 88.6203C325.575 78.1203 334.15 70.9453 348.85 70.9453C367.575 70.9453 374.4 80.3953 374.575 91.2453H368.625C368.275 81.9703 362.85 76.1953 348.85 76.1953C337.3 76.1953 331.525 81.2703 331.525 88.6203C331.525 96.1453 335.375 99.9953 348.5 102.795L355.325 104.195C371.25 107.52 376.5 113.645 376.5 123.445C376.5 134.995 367.75 143.045 351.125 143.045C333.975 143.045 323.65 136.045 323.125 120.47Z" fill="white"/>
<path d="M146.375 155.484V224.434H139.375L109.975 180.684C106.125 174.734 101.575 167.734 98.6 162.484C98.775 171.934 98.775 180.859 98.775 187.509V224.434H93V155.484H100L129.4 199.234C133.25 205.184 137.8 212.184 140.775 217.434C140.6 207.984 140.6 199.059 140.6 192.409V155.484H146.375Z" fill="white"/>
<path d="M173.498 160.734V185.759H210.423V191.009H173.498V219.184H214.273V224.434H167.723V155.484H214.273V160.734H173.498Z" fill="white"/>
<path d="M314.9 155.48L294.075 224.43H287.6L274.65 180.855C273.075 174.905 271.325 168.605 269.575 162.48C268 168.605 266.25 174.905 264.5 180.855L251.55 224.43H245.075L224.25 155.48H230.2L242.8 197.13C244.725 203.78 246.825 210.955 248.4 217.605C250.325 210.78 252.075 203.605 254 196.78L266.25 155.305H272.725L284.975 196.78C286.9 203.605 288.825 210.605 290.575 217.605C292.15 210.78 294.25 203.78 296.175 197.13L308.775 155.48H314.9V155.48Z" fill="white"/>
<path d="M323.125 203.259H329.075C329.6 215.684 337.825 220.759 351.125 220.759C363.9 220.759 370.55 215.159 370.55 206.234C370.55 198.884 366.175 194.859 352.875 192.059L346.05 190.659C333.275 188.034 325.575 182.959 325.575 171.409C325.575 160.909 334.15 153.734 348.85 153.734C367.575 153.734 374.4 163.184 374.575 174.034H368.625C368.275 164.759 362.85 158.984 348.85 158.984C337.3 158.984 331.525 164.059 331.525 171.409C331.525 178.934 335.375 182.784 348.5 185.584L355.325 186.984C371.25 190.309 376.5 196.434 376.5 206.234C376.5 217.784 367.75 225.834 351.125 225.834C333.975 226.009 323.65 219.009 323.125 203.259Z" fill="white"/>
<path d="M146.375 238.43V307.38H139.375L109.975 263.63C106.125 257.68 101.575 250.68 98.6 245.43C98.775 254.88 98.775 263.805 98.775 270.455V307.38H93V238.43H100L129.4 282.18C133.25 288.13 137.8 295.13 140.775 300.38C140.6 290.93 140.6 282.005 140.6 275.355V238.43H146.375Z" fill="white"/>
<path d="M173.498 243.68V268.705H210.423V273.955H173.498V302.13H214.273V307.38H167.723V238.43H214.273V243.68H173.498Z" fill="white"/>
<path d="M314.9 238.425L294.075 307.375H287.6L274.65 263.8C273.075 257.85 271.325 251.55 269.575 245.425C268 251.55 266.25 257.85 264.5 263.8L251.55 307.375H245.075L224.25 238.425H230.2L242.8 280.075C244.725 286.725 246.825 293.9 248.4 300.55C250.325 293.725 252.075 286.55 254 279.725L266.25 238.25H272.725L284.975 279.725C286.9 286.55 288.825 293.55 290.575 300.55C292.15 293.725 294.25 286.725 296.175 280.075L308.775 238.425H314.9Z" fill="white"/>
<path d="M323.125 286.205H329.075C329.6 298.63 337.825 303.705 351.125 303.705C363.9 303.705 370.55 298.105 370.55 289.18C370.55 281.83 366.175 277.805 352.875 275.005L346.05 273.605C333.275 270.98 325.575 265.905 325.575 254.355C325.575 243.855 334.15 236.68 348.85 236.68C367.575 236.68 374.4 246.13 374.575 256.98H368.625C368.275 247.705 362.85 241.93 348.85 241.93C337.3 241.93 331.525 247.005 331.525 254.355C331.525 261.88 335.375 265.73 348.5 268.53L355.325 269.93C371.25 273.255 376.5 279.38 376.5 289.18C376.5 300.73 367.75 308.78 351.125 308.78C333.975 308.955 323.65 301.955 323.125 286.205Z" fill="white"/>
</g>
<defs>
<clipPath id="clip0_6471_122645">
<rect width="284" height="294" fill="white" transform="translate(93)"/>
</clipPath>
</defs>
</svg>
