<svg width="470" height="294" viewBox="0 0 470 294" fill="none" xmlns="http://www.w3.org/2000/svg">
<path d="M470 0H0V294H470V0Z" fill="#F0F0F0"/>
<path d="M92.2834 106.266H79V94.0781H120.493V106.266H107.073V141.734H92.2834V106.266Z" fill="#EA0029"/>
<path d="M122.684 94.0781H162.944V106.266H137.473V112.154H163.081V123.521H137.473V129.409H163.081V141.597H122.684V94.0781Z" fill="#EA0029"/>
<path d="M165.41 94.0781H189.512C205.397 94.0781 211.012 105.855 211.012 117.906C211.012 132.559 203.206 141.871 186.636 141.871H165.41V94.0781V94.0781ZM180.2 129.546H185.951C195.127 129.546 196.496 122.151 196.496 117.632C196.496 114.619 195.537 106.266 184.856 106.266H180.2V129.546V129.546Z" fill="#EA0029"/>
<path d="M228.268 97.9047H212.656V94.0703H248.124V97.9047H232.65V140.083H228.268V97.9047Z" fill="#121212"/>
<path d="M260.86 94.0703H265.79L283.319 140.22H278.663L273.322 125.704H253.329L247.851 140.22H243.469L260.86 94.0703ZM272.09 122.006L265.79 104.752C264.832 102.15 263.462 98.0416 263.462 98.0416H263.325C263.325 98.0416 262.093 102.013 261.134 104.752L254.561 122.006H272.09Z" fill="#121212"/>
<path d="M287.016 94.0703H291.398V136.111H315.91V140.083H287.016V94.0703Z" fill="#121212"/>
<path d="M320.57 94.0703H324.952V118.583L349.876 94.0703H355.49L336.182 112.831L356.586 140.22H351.382L333.169 115.844L324.952 123.924V140.22H320.57V94.0703V94.0703Z" fill="#121212"/>
<path d="M355.074 125.154H359.456C359.867 132.959 365.208 137.342 373.835 137.342C380.545 137.342 385.612 133.918 385.612 127.619C385.612 121.045 381.23 119.539 371.37 117.622C362.88 115.979 356.854 113.377 356.854 105.297C356.854 97.9023 363.017 93.1094 372.329 93.1094C382.6 93.1094 387.803 98.587 388.625 106.53H384.38C383.558 99.9565 378.902 96.6699 372.329 96.6699C365.345 96.6699 361.1 99.9565 361.1 105.16C361.1 110.638 365.345 112.281 373.561 113.925C382.463 115.705 389.994 117.896 389.994 127.482C389.994 135.698 383.421 140.902 373.698 140.902C361.51 140.902 355.485 134.055 355.074 125.154Z" fill="#121212"/>
<path d="M145.285 155.555H165.963C178.836 155.555 187.874 163.771 187.874 178.013C187.874 192.255 179.384 200.335 165.416 200.335H145.285V155.555V155.555ZM164.457 189.516C170.482 189.516 174.728 185.682 174.728 178.013C174.728 170.618 170.756 166.373 164.457 166.373H158.432V189.516H164.457V189.516Z" fill="#121212"/>
<path d="M201.019 155.555H214.439L231.009 200.335H217.041L214.85 193.761H199.65L197.459 200.335H184.449L201.019 155.555ZM202.662 184.86H211.975L209.099 176.096C208.414 173.905 207.455 170.344 207.455 170.344H207.318C207.318 170.344 206.36 173.905 205.675 176.096L202.662 184.86Z" fill="#121212"/>
<path d="M232.516 155.555H245.662V200.335H232.516V155.555Z" fill="#121212"/>
<path d="M250.18 155.555H263.326V189.105H282.498V200.335H250.18V155.555Z" fill="#121212"/>
<path d="M289.892 184.727L274.555 155.695H288.797L293.59 165.692C295.233 169.116 296.602 172.95 296.602 172.95H296.739C296.739 172.95 298.246 169.116 299.752 165.692L304.545 155.695H318.513L303.039 184.727V200.475H289.892V184.727Z" fill="#121212"/>
</svg>
